<mxfile host="65bd71144e">
    <diagram id="_OcyStnqIV_vSM9sX_qs" name="Page-1">
        <mxGraphModel dx="590" dy="542" grid="1" gridSize="10" guides="1" tooltips="1" connect="1" arrows="1" fold="1" page="1" pageScale="1" pageWidth="850" pageHeight="1100" math="0" shadow="0">
            <root>
                <mxCell id="0"/>
                <mxCell id="1" parent="0"/>
                <mxCell id="11" style="edgeStyle=none;html=1;exitX=0.5;exitY=1;exitDx=0;exitDy=0;exitPerimeter=0;fontColor=#006EAF;fillColor=#1ba1e2;strokeColor=#006EAF;startArrow=open;startFill=0;endArrow=open;endFill=0;" edge="1" parent="1" source="8" target="10">
                    <mxGeometry relative="1" as="geometry"/>
                </mxCell>
                <mxCell id="8" value="" style="shape=folder;fontStyle=1;tabWidth=110;tabHeight=30;tabPosition=left;html=1;boundedLbl=1;labelInHeader=1;container=1;collapsible=0;fontColor=#006EAF;fillColor=none;strokeColor=#006EAF;" vertex="1" parent="1">
                    <mxGeometry x="40" y="40" width="380" height="210" as="geometry"/>
                </mxCell>
                <mxCell id="9" value="" style="html=1;strokeColor=none;resizeWidth=1;resizeHeight=1;fillColor=none;part=1;connectable=0;allowArrows=0;deletable=0;fontColor=#006EAF;" vertex="1" parent="8">
                    <mxGeometry width="380" height="180" relative="1" as="geometry">
                        <mxPoint y="30" as="offset"/>
                    </mxGeometry>
                </mxCell>
                <mxCell id="2" value="Catalog&#10;Checkout" style="shape=module;align=left;spacingLeft=20;align=center;verticalAlign=top;fillColor=none;fontColor=#006EAF;strokeColor=#006EAF;" vertex="1" parent="8">
                    <mxGeometry x="20" y="60.005" width="100" height="43.75" as="geometry"/>
                </mxCell>
                <mxCell id="3" value="Customer&#10;Shipping" style="shape=module;align=left;spacingLeft=20;align=center;verticalAlign=top;fillColor=none;fontColor=#006EAF;strokeColor=#006EAF;" vertex="1" parent="8">
                    <mxGeometry x="140" y="60.005" width="100" height="43.75" as="geometry"/>
                </mxCell>
                <mxCell id="4" value="Analytics" style="shape=module;align=left;spacingLeft=20;align=center;verticalAlign=top;fillColor=none;fontColor=#006EAF;strokeColor=#006EAF;" vertex="1" parent="8">
                    <mxGeometry x="260" y="60.005" width="100" height="43.75" as="geometry"/>
                </mxCell>
                <mxCell id="5" value="Update&#10;Inventory" style="shape=module;align=left;spacingLeft=20;align=center;verticalAlign=top;fillColor=none;fontColor=#006EAF;strokeColor=#006EAF;" vertex="1" parent="8">
                    <mxGeometry x="20" y="130.005" width="100" height="43.75" as="geometry"/>
                </mxCell>
                <mxCell id="6" value="Reporting" style="shape=module;align=left;spacingLeft=20;align=center;verticalAlign=top;fillColor=none;fontColor=#006EAF;strokeColor=#006EAF;" vertex="1" parent="8">
                    <mxGeometry x="140" y="130.005" width="100" height="43.75" as="geometry"/>
                </mxCell>
                <mxCell id="7" value="Update&#10;Accounts" style="shape=module;align=left;spacingLeft=20;align=center;verticalAlign=top;fillColor=none;fontColor=#006EAF;strokeColor=#006EAF;" vertex="1" parent="8">
                    <mxGeometry x="260" y="130.005" width="100" height="43.75" as="geometry"/>
                </mxCell>
                <mxCell id="10" value="" style="shape=cylinder3;whiteSpace=wrap;html=1;boundedLbl=1;backgroundOutline=1;size=15;fontColor=#ffffff;fillColor=none;strokeColor=#006EAF;" vertex="1" parent="1">
                    <mxGeometry x="200" y="290" width="60" height="80" as="geometry"/>
                </mxCell>
            </root>
        </mxGraphModel>
    </diagram>
</mxfile>